<?xml version="1.0" encoding="iso-8859-1"?>
<!-- Generator: Adobe Illustrator 19.0.0, SVG Export Plug-In . SVG Version: 6.00 Build 0)  -->
<svg version="1.1" id="Capa_1" xmlns="http://www.w3.org/2000/svg" xmlns:xlink="http://www.w3.org/1999/xlink" x="0px" y="0px"
	 viewBox="0 0 512 512" style="enable-background:new 0 0 512 512;" xml:space="preserve">
<g>
	<g>
		<g>
			<path d="M373.77,280.67l84.46-70.384h-20.46c-2.425,0.001-4.751-0.962-6.466-2.677c-1.715-1.715-2.678-4.041-2.677-6.466v-192
				c-0.005-5.047-4.096-9.138-9.143-9.143h-91.429c-5.047,0.005-9.138,4.095-9.143,9.143v192c0.001,2.425-0.962,4.751-2.677,6.466
				c-1.715,1.715-4.041,2.678-6.466,2.677h-20.46L373.77,280.67z"/>
			<path d="M273.199,411.429v87.643l96.786-96.786h-87.643C277.294,402.291,273.204,406.381,273.199,411.429z"/>
			<path d="M373.77,301.714c-2.138,0.002-4.21-0.747-5.853-2.116L258.203,208.17c-2.959-2.464-4.058-6.518-2.747-10.138
				c1.311-3.621,4.749-6.032,8.6-6.031h36.571V73.143H62.913c-5.047,0.005-9.138,4.095-9.143,9.143v420.571
				c0.005,5.047,4.095,9.138,9.143,9.143h192V411.429c0.017-15.142,12.287-27.412,27.429-27.429h100.571v-87.143l-3.29,2.742
				C377.98,300.967,375.909,301.716,373.77,301.714z M99.484,237.714h164.571c5.049,0,9.143,4.093,9.143,9.143
				c0,5.049-4.093,9.143-9.143,9.143H99.484c-5.049,0-9.143-4.093-9.143-9.143C90.342,241.808,94.435,237.714,99.484,237.714z
				 M99.484,283.429h219.429c5.049,0,9.143,4.093,9.143,9.143c0,5.049-4.093,9.143-9.143,9.143H99.484
				c-5.049,0-9.143-4.093-9.143-9.143C90.342,287.522,94.435,283.429,99.484,283.429z M218.342,438.857H99.484
				c-5.049,0-9.143-4.093-9.143-9.143s4.093-9.143,9.143-9.143h118.857c5.049,0,9.143,4.093,9.143,9.143
				S223.391,438.857,218.342,438.857z M218.342,393.143H99.484c-5.049,0-9.143-4.093-9.143-9.143c0-5.049,4.093-9.143,9.143-9.143
				h118.857c5.049,0,9.143,4.093,9.143,9.143C227.484,389.049,223.391,393.143,218.342,393.143z M337.199,347.429H99.484
				c-5.049,0-9.143-4.093-9.143-9.143c0-5.049,4.093-9.143,9.143-9.143h237.714c5.049,0,9.143,4.093,9.143,9.143
				C346.342,343.335,342.248,347.429,337.199,347.429z"/>
		</g>
	</g>
</g>
<g>
</g>
<g>
</g>
<g>
</g>
<g>
</g>
<g>
</g>
<g>
</g>
<g>
</g>
<g>
</g>
<g>
</g>
<g>
</g>
<g>
</g>
<g>
</g>
<g>
</g>
<g>
</g>
<g>
</g>
</svg>
