<svg id="Capa_1" enable-background="new 0 0 511.984 511.984" height="512" viewBox="0 0 511.984 511.984" width="512" xmlns="http://www.w3.org/2000/svg"><g><path d="m275.042 256h30c0-27.05-22.007-49.057-49.058-49.057v30c10.509 0 19.058 8.549 19.058 19.057z"/><path d="m344.27 256h30c0-65.223-53.063-118.286-118.286-118.286v30c48.681 0 88.286 39.605 88.286 88.286z"/><path d="m413.127 256h30c0-103.191-83.952-187.143-187.143-187.143v30c86.648 0 157.143 70.494 157.143 157.143z"/><path d="m437.004 74.981c-48.353-48.352-112.64-74.981-181.02-74.981v30c124.617 0 226 101.383 226 226h30c0-68.38-26.629-132.667-74.98-181.019z"/><path d="m346.95 290.15h68.945v167.714h-68.945z" transform="matrix(.707 -.707 .707 .707 -152.747 379.251)"/><path d="m211.042 300.942c-16.469-16.468-31.632-33.704-45.181-51.319l-132.769-132.769-13.676 13.676c-24.018 24.018-25.812 65.83-5.051 117.733 19.13 47.825 55.507 100.004 102.43 146.927 46.922 46.923 99.102 83.3 146.927 102.43 23.972 9.588 45.784 14.366 64.691 14.365 22.031-.001 40.116-6.49 53.041-19.416l13.676-13.676-132.769-132.77c-17.614-13.549-34.851-28.712-51.319-45.181z"/><path d="m103.504 46.704h68.946v167.715h-68.946z" transform="matrix(.707 -.707 .707 .707 -51.908 135.805)"/></g></svg>